<?xml version="1.0" encoding="UTF-8"?><!DOCTYPE svg PUBLIC "-//W3C//DTD SVG 1.1//EN" "http://www.w3.org/Graphics/SVG/1.1/DTD/svg11.dtd"><svg xmlns="http://www.w3.org/2000/svg" xmlns:xlink="http://www.w3.org/1999/xlink"><symbol id="button-next" viewBox="0 0 18 30"><path d="M2 2l13 13L2 28" stroke="#1E0606" stroke-width="4"/></symbol><symbol id="button-previous" viewBox="0 0 18 30"><path d="M16 2L3 15l13 13" stroke="#1E0606" stroke-width="4"/></symbol><symbol id="checkbox-checked" viewBox="0 0 15 15"><path fill-rule="evenodd" clip-rule="evenodd" d="M14.1.273a1.4 1.4 0 01.552 1.902L8.34 13.65c-.765 1.39-2.736 1.463-3.601.133L.826 7.763a1.4 1.4 0 012.348-1.526l3.276 5.04L12.198.825A1.4 1.4 0 0114.1.273z" fill="#C29974"/></symbol><symbol id="facebook" viewBox="0 0 30 30"><path fill-rule="evenodd" clip-rule="evenodd" d="M0 15C0 6.716 6.716 0 15 0c8.284 0 15 6.716 15 15 0 8.284-6.716 15-15 15-8.284 0-15-6.716-15-15z" fill="#666"/><path fill-rule="evenodd" clip-rule="evenodd" d="M18.553 10.367h-2.256c-.266 0-.563.35-.563.818v1.63h2.819v2.32h-2.82v6.97h-2.662v-6.97h-2.413v-2.32h2.413v-1.368c0-1.959 1.36-3.553 3.226-3.553h2.256v2.473z" fill="#fff"/></symbol><symbol id="icon-arrow-next-hover" viewBox="0 0 18 30"><path d="M2 2l13 13L2 28" stroke="#C29974" stroke-width="4"/></symbol><symbol id="icon-arrow-next" viewBox="0 0 18 30"><path d="M2 2l13 13L2 28" stroke="#1E0606" stroke-opacity=".12" stroke-width="4"/></symbol><symbol id="icon-arrow-prev-hover" viewBox="0 0 18 30"><path d="M16 2L3 15l13 13" stroke="#C29974" stroke-width="4"/></symbol><symbol id="icon-arrow-prev" viewBox="0 0 18 30"><path d="M16 2L3 15l13 13" stroke="#1E0606" stroke-opacity=".12" stroke-width="4"/></symbol><symbol id="icon-search" viewBox="0 0 18 18"><path d="M11.365.26c-3.42 0-6.2 2.82-6.2 6.26 0 1.46.5 2.78 1.32 3.86l-5.88 5.94c-.34.36-.34.92 0 1.26.18.18.4.26.62.26.24 0 .46-.08.64-.26l5.88-5.96c1.02.74 2.26 1.16 3.6 1.16 3.42 0 6.2-2.82 6.2-6.26.02-3.46-2.76-6.26-6.18-6.26zm0 10.94c-2.54 0-4.6-2.1-4.6-4.68 0-2.58 2.06-4.68 4.6-4.68 2.54 0 4.6 2.1 4.6 4.68 0 2.58-2.06 4.68-4.6 4.68zm3.1-4.6a.69.69 0 01-.68.6h-.1a.71.71 0 01-.6-.78c.14-1.04-1.02-1.58-1.08-1.6-.34-.16-.5-.58-.34-.92.16-.34.56-.5.92-.36.08.02 2.16.98 1.88 3.06zm-1.46 1.52c.14.14.24.36.24.56 0 .22-.08.42-.24.56a.84.84 0 01-.56.24c-.2 0-.42-.08-.56-.24a.84.84 0 01-.24-.56c0-.2.08-.42.24-.56a.84.84 0 01.56-.24c.2 0 .4.08.56.24z" fill="#1E0606"/></symbol><symbol id="instagram" viewBox="0 0 30 30"><path fill-rule="evenodd" clip-rule="evenodd" d="M0 15C0 6.716 6.716 0 15 0c8.284 0 15 6.716 15 15 0 8.284-6.716 15-15 15-8.284 0-15-6.716-15-15z" fill="#666"/><path fill-rule="evenodd" clip-rule="evenodd" d="M15 7c-2.173 0-2.445.01-3.298.048-.852.039-1.433.174-1.942.372a3.922 3.922 0 00-1.417.923c-.445.444-.719.89-.923 1.417-.198.509-.333 1.09-.372 1.942C7.01 12.555 7 12.827 7 15s.01 2.445.048 3.298c.039.852.174 1.433.372 1.942.204.526.478.973.923 1.417.444.445.89.719 1.417.923.509.198 1.09.333 1.942.372.853.039 1.125.048 3.298.048s2.445-.01 3.298-.048c.852-.039 1.433-.174 1.942-.372a3.922 3.922 0 001.417-.923c.445-.445.719-.89.923-1.417.198-.509.333-1.09.372-1.942.039-.853.048-1.125.048-3.298s-.01-2.445-.048-3.298c-.039-.852-.174-1.433-.372-1.942a3.922 3.922 0 00-.923-1.417 3.922 3.922 0 00-1.417-.923c-.509-.198-1.09-.333-1.942-.372C17.445 7.01 17.173 7 15 7zm0 1.441c2.136 0 2.39.009 3.233.047.78.036 1.203.166 1.485.276.374.145.64.318.92.598.28.28.453.546.598.92.11.282.24.705.276 1.485.038.844.047 1.097.047 3.233s-.009 2.39-.047 3.233c-.036.78-.166 1.203-.276 1.485-.145.374-.318.64-.598.92-.28.28-.546.453-.92.598-.282.11-.705.24-1.485.276-.844.038-1.097.047-3.233.047s-2.39-.009-3.233-.047c-.78-.036-1.203-.166-1.485-.276a2.48 2.48 0 01-.92-.598 2.479 2.479 0 01-.598-.92c-.11-.282-.24-.705-.276-1.485-.038-.844-.047-1.097-.047-3.233s.009-2.39.047-3.233c.036-.78.166-1.203.276-1.485.145-.374.318-.64.598-.92.28-.28.546-.453.92-.598.282-.11.705-.24 1.485-.276.844-.038 1.097-.047 3.233-.047zM10.892 15a4.108 4.108 0 118.216 0 4.108 4.108 0 01-8.216 0zM15 17.667a2.667 2.667 0 110-5.334 2.667 2.667 0 010 5.334zm4.27-5.977a.96.96 0 100-1.92.96.96 0 000 1.92z" fill="#fff"/></symbol><symbol id="logo" viewBox="0 0 100 52"><path fill-rule="evenodd" clip-rule="evenodd" d="M0 0h18.113C31.12 0 40.406 12.371 40.406 24.036v3.697c0 11.664-9.286 24.036-22.293 24.036H0V0zm37.62 24.036c0-10.523-8.403-21.263-19.507-21.263H2.787v46.223h15.326c11.104 0 19.506-10.74 19.506-21.263v-3.697z" fill="#1E0606"/><path d="M46.444 0h2.786v49.227h14.862V52H46.444V0zM67.807 0v51.769h2.787V27.383l.684-.68 24.81 25.066H100L73.249 24.74 98.109 0h-3.941L70.594 23.461V0h-2.787z" fill="#1E0606"/></symbol><symbol id="pinterest" viewBox="0 0 30 30"><path fill-rule="evenodd" clip-rule="evenodd" d="M0 15C0 6.716 6.716 0 15 0c8.284 0 15 6.716 15 15 0 8.284-6.716 15-15 15-8.284 0-15-6.716-15-15z" fill="#666"/><path fill-rule="evenodd" clip-rule="evenodd" d="M15 7a8 8 0 00-3.21 15.327c-.023-.558-.004-1.23.138-1.837l1.03-4.359s-.256-.51-.256-1.266c0-1.185.688-2.07 1.543-2.07.727 0 1.08.546 1.08 1.2 0 .732-.467 1.826-.707 2.84-.2.849.425 1.54 1.262 1.54 1.516 0 2.536-1.946 2.536-4.253 0-1.753-1.18-3.065-3.328-3.065-2.426 0-3.938 1.809-3.938 3.83 0 .698.205 1.189.527 1.569.148.176.168.245.114.447l-.162.641c-.054.203-.218.276-.4.2-1.119-.456-1.639-1.68-1.639-3.056 0-2.272 1.916-4.998 5.717-4.998 3.055 0 5.065 2.212 5.065 4.583 0 3.139-1.744 5.483-4.317 5.483-.863 0-1.675-.466-1.954-.996 0 0-.465 1.843-.563 2.198-.169.617-.501 1.234-.805 1.714A8 8 0 0023 15 8 8 0 0015 7z" fill="#fff"/></symbol><symbol id="popup-close" viewBox="0 0 15 15"><path d="M2.219 14.611a1.288 1.288 0 01-1.844 0A1.26 1.26 0 010 13.69c0-.345.115-.662.375-.921L5.648 7.5.375 2.231A1.26 1.26 0 010 1.31C0 .964.115.648.375.389a1.288 1.288 0 011.844 0l5.274 5.268L12.767.39a1.288 1.288 0 011.844 0 1.285 1.285 0 010 1.842L9.337 7.5l5.274 5.269a1.285 1.285 0 010 1.842 1.288 1.288 0 01-1.844 0L7.493 9.343 2.219 14.61z" fill="#fff"/></symbol><symbol id="rating-star-active" viewBox="0 0 14 13"><path d="M5.608.927c.3-.921 1.603-.921 1.903 0L8.58 4.22h3.46c.97 0 1.372 1.24.588 1.809l-2.8 2.034 1.07 3.292c.299.921-.756 1.688-1.54 1.118l-2.8-2.034-2.8 2.034c-.783.57-1.838-.197-1.538-1.118l1.07-3.292L.49 6.028c-.784-.57-.381-1.81.588-1.81h3.46l1.07-3.29z" fill="#C29974"/></symbol><symbol id="rating-star-disabled" viewBox="0 0 14 13"><path d="M5.608.927c.3-.921 1.603-.921 1.903 0L8.58 4.22h3.46c.97 0 1.372 1.24.588 1.809l-2.8 2.034 1.07 3.292c.299.921-.756 1.688-1.54 1.118l-2.8-2.034-2.8 2.034c-.783.57-1.838-.197-1.538-1.118l1.07-3.292L.49 6.028c-.784-.57-.381-1.81.588-1.81h3.46l1.07-3.29z" fill="#fff"/></symbol><symbol id="rating-star-enabled" viewBox="0 0 14 13"><path d="M5.608.927c.3-.921 1.603-.921 1.903 0L8.58 4.22h3.46c.97 0 1.372 1.24.588 1.809l-2.8 2.034 1.07 3.292c.299.921-.756 1.688-1.54 1.118l-2.8-2.034-2.8 2.034c-.783.57-1.838-.197-1.538-1.118l1.07-3.292L.49 6.028c-.784-.57-.381-1.81.588-1.81h3.46l1.07-3.29z" fill="#836E5B"/></symbol><symbol id="star" viewBox="0 0 14 13"><path d="M5.608.927c.3-.921 1.603-.921 1.903 0L8.58 4.22h3.46c.97 0 1.372 1.24.588 1.809l-2.8 2.034 1.07 3.292c.299.921-.756 1.688-1.54 1.118l-2.8-2.034-2.8 2.034c-.783.57-1.838-.197-1.538-1.118l1.07-3.292L.49 6.028c-.784-.57-.381-1.81.588-1.81h3.46l1.07-3.29z" fill="#fff"/></symbol><symbol id="stroke-next" viewBox="0 0 8 12"><path fill-rule="evenodd" clip-rule="evenodd" d="M1.312 0L0 1.177 5.375 6 0 10.823 1.312 12 8 6 1.312 0z" fill="#1E0606"/></symbol><symbol id="twitter" viewBox="0 0 30 30"><path fill-rule="evenodd" clip-rule="evenodd" d="M0 15C0 6.716 6.716 0 15 0c8.284 0 15 6.716 15 15 0 8.284-6.716 15-15 15-8.284 0-15-6.716-15-15z" fill="#666"/><path fill-rule="evenodd" clip-rule="evenodd" d="M21.1 12.29c.006.126.01.253.01.382 0 3.904-2.973 8.406-8.407 8.406a8.366 8.366 0 01-4.53-1.328 5.925 5.925 0 004.375-1.225 2.959 2.959 0 01-2.76-2.05c.18.035.367.052.557.052.269 0 .53-.035.778-.103a2.958 2.958 0 01-2.371-2.897v-.037c.399.221.856.354 1.34.37a2.95 2.95 0 01-1.314-2.46c0-.54.145-1.048.399-1.484a8.385 8.385 0 006.089 3.086 2.995 2.995 0 01-.075-.674 2.953 2.953 0 015.109-2.02 5.844 5.844 0 001.877-.718 2.957 2.957 0 01-1.3 1.635 5.882 5.882 0 001.699-.465 6.04 6.04 0 01-1.475 1.53z" fill="#fff"/></symbol></svg>