<svg width="18" height="18" viewBox="0 0 18 18" fill="none" xmlns="http://www.w3.org/2000/svg">
<path d="M11.3651 0.26001C7.94509 0.26001 5.16509 3.08001 5.16509 6.52001C5.16509 7.98001 5.6651 9.30002 6.4851 10.38L0.605098 16.32C0.265098 16.68 0.265098 17.24 0.605098 17.58C0.785098 17.76 1.0051 17.84 1.2251 17.84C1.4651 17.84 1.6851 17.76 1.8651 17.58L7.7451 11.62C8.7651 12.36 10.0051 12.78 11.3451 12.78C14.7651 12.78 17.5451 9.96001 17.5451 6.52001C17.5651 3.06001 14.7851 0.26001 11.3651 0.26001ZM11.3651 11.2C8.82509 11.2 6.76509 9.10001 6.76509 6.52001C6.76509 3.94001 8.82509 1.84001 11.3651 1.84001C13.9051 1.84001 15.9651 3.94001 15.9651 6.52001C15.9651 9.10001 13.9051 11.2 11.3651 11.2ZM14.4651 6.60001C14.4251 6.94001 14.1251 7.20001 13.7851 7.20001C13.7451 7.20001 13.7251 7.20001 13.6851 7.20001C13.3051 7.14001 13.0451 6.80001 13.0851 6.42001C13.2251 5.38001 12.0651 4.84001 12.0051 4.82001C11.6651 4.66001 11.5051 4.24001 11.6651 3.90001C11.8251 3.56001 12.2251 3.40001 12.5851 3.54001C12.6651 3.56001 14.7451 4.52001 14.4651 6.60001ZM13.0051 8.12001C13.1451 8.26001 13.2451 8.48002 13.2451 8.68002C13.2451 8.90002 13.1651 9.10001 13.0051 9.24002C12.8651 9.38002 12.6451 9.48002 12.4451 9.48002C12.2451 9.48002 12.0251 9.40001 11.8851 9.24002C11.7451 9.10001 11.6451 8.88002 11.6451 8.68002C11.6451 8.48002 11.7251 8.26001 11.8851 8.12001C12.0251 7.98001 12.2451 7.88002 12.4451 7.88002C12.6451 7.88002 12.8451 7.96001 13.0051 8.12001Z" fill="#1E0606"/>
</svg>
